<?xml version="1.0" encoding="UTF-8"?>
<svg width="75px" height="99px" viewBox="0 0 75 99" version="1.1" xmlns="http://www.w3.org/2000/svg" xmlns:xlink="http://www.w3.org/1999/xlink">
    <!-- Generator: Sketch 41.1 (35376) - http://www.bohemiancoding.com/sketch -->
    <title>हिं</title>
    <desc>Created with Sketch.</desc>
    <defs></defs>
    <g id="Page-1" stroke="none" stroke-width="1" fill="none" fill-rule="evenodd">
        <g id="radiohere-homepage" transform="translate(-765.000000, -333.000000)" fill="#F6F6F6">
            <g id="Group-2-Copy-3" transform="translate(600.000000, 303.000000)">
                <g id="EN">
                    <path d="M238.71,115.03 C241.05,112.24 243.39,108.46 243.39,103.42 C243.39,96.22 237.99,89.47 227.82,89.47 C224.76,89.47 221.97,89.83 219.45,90.55 C216.84,89.29 215.58,87.4 215.58,85.69 C215.58,83.89 216.57,82.63 219.9,82.63 L239.97,82.63 L239.97,67.42 L249.87,67.42 L249.87,57.61 L196.32,57.61 L196.32,67.42 L227.73,67.42 L227.73,72.82 L216.84,72.82 C208.47,72.82 203.34,77.05 203.34,83.26 C203.34,87.85 205.5,91.81 210.54,94.78 C206.67,97.84 204.42,101.98 204.42,106.48 C204.42,120.16 218.55,126.64 234.93,128.26 L240.42,118.09 C221.07,116.56 216.66,112.06 216.66,106.93 C216.66,102.43 220.98,99.19 227.82,99.19 C230.52,99.19 232.32,100.36 232.32,102.34 C232.32,104.86 230.52,106.93 228.45,109 L238.71,115.03 Z M196.72,67.42 L196.72,57.61 L187.27,57.61 L187.27,51.4 C187.27,45.01 191.59,41.77 198.88,41.77 C211.12,41.77 219.04,47.44 223.81,53.29 L231.82,45.64 C228.13,40.78 217.06,30.97 199.06,30.97 C184.66,30.97 174.58,38.17 174.58,51.49 L174.58,57.61 L165.13,57.61 L165.13,67.42 L174.58,67.42 L174.58,118 L187.27,118 L187.27,67.42 L196.72,67.42 Z M231.54,40.42 C231.54,44.65 234.96,48.07 239.28,48.07 C243.87,48.07 247.29,44.65 247.29,40.42 C247.29,35.74 243.87,32.32 239.28,32.32 C234.96,32.32 231.54,35.74 231.54,40.42 Z" id="हिं"></path>
                </g>
            </g>
        </g>
    </g>
</svg>